<svg id="Ebene_1" data-name="Ebene 1" xmlns="http://www.w3.org/2000/svg" viewBox="0 0 845.9 845.9"><defs><style>.cls-1{fill:#005cfd;}.cls-2{fill:#0056e9;}.cls-3{opacity:0.25;}</style></defs><circle class="cls-1" cx="422.95" cy="422.95" r="286.5"/><circle class="cls-2" cx="422.95" cy="422.95" r="221.78"/><path class="cls-1" d="M565.76,110.37a348.54,348.54,0,1,1-136.09,27.48,347.4,347.4,0,0,1,136.09-27.48m0-1c-193.64,0-350.61,157-350.61,350.61s157,350.61,350.61,350.61S916.37,653.62,916.37,460s-157-350.61-350.61-350.61Z" transform="translate(-142.81 -37.04)"/><g class="cls-3"><path class="cls-1" d="M565.76,38A422.05,422.05,0,0,1,730,848.77,422.06,422.06,0,0,1,401.52,71.19,419.35,419.35,0,0,1,565.76,38m0-1C332.17,37,142.81,226.4,142.81,460s189.36,422.95,423,422.95,423-189.36,423-422.95S799.35,37,565.76,37Z" transform="translate(-142.81 -37.04)"/></g></svg>