<svg id="Ebene_1" data-name="Ebene 1" xmlns="http://www.w3.org/2000/svg" viewBox="0 0 680.7 139.21"><path d="M309.05,477.47a74.3,74.3,0,0,1-7.54,20.32,60.27,60.27,0,0,1-13.08,16.33,59.5,59.5,0,0,1-18,10.87,60.3,60.3,0,0,1-21.94,3.91,63.45,63.45,0,0,1-46.19-19.43,65.11,65.11,0,0,1-13.89-22,82.52,82.52,0,0,1,0-56.3A64.49,64.49,0,0,1,223,394.86a62.66,62.66,0,0,1,25.42-5.17,60.31,60.31,0,0,1,21.94,3.92,58.87,58.87,0,0,1,18,10.93,60.2,60.2,0,0,1,13,16.41,80.55,80.55,0,0,1,7.61,20.17H280.23A39.58,39.58,0,0,0,269,422.5q-7.85-7.1-20.54-7.1a33.76,33.76,0,0,0-14.19,3.18,35.76,35.76,0,0,0-12.12,9.09,48.58,48.58,0,0,0,0,63.25A35.76,35.76,0,0,0,234.27,500a33.76,33.76,0,0,0,14.19,3.18q12.71,0,20.61-7.1a38.27,38.27,0,0,0,11.16-18.62Z" transform="translate(-183.43 -389.69)"/><path d="M368.07,528.9a52,52,0,0,1-21.35-4.36,54,54,0,0,1-17.29-12.12,55.34,55.34,0,0,1-11.68-18.62,65.4,65.4,0,0,1-4.21-23.86V391.17h27.19v78.77a32.66,32.66,0,0,0,2.59,13,34.63,34.63,0,0,0,6.94,10.57,32.4,32.4,0,0,0,10.13,7.09,29.17,29.17,0,0,0,12.12,2.59,31.92,31.92,0,0,0,12.7-2.59,34.22,34.22,0,0,0,10.65-7.09,34.76,34.76,0,0,0,7.31-10.57,31.27,31.27,0,0,0,2.73-13V391.17h27.2V527.42H413.44l-6.06-13.59a42.37,42.37,0,0,1-9.46,7.54,55.4,55.4,0,0,1-12.19,5.24A59.43,59.43,0,0,1,368.07,528.9Z" transform="translate(-183.43 -389.69)"/><path d="M501.14,528.9a52,52,0,0,1-21.36-4.36,54.1,54.1,0,0,1-17.29-12.12,55.47,55.47,0,0,1-11.67-18.62,65.4,65.4,0,0,1-4.22-23.86V391.17h27.2v78.77a32.83,32.83,0,0,0,2.58,13,34.66,34.66,0,0,0,6.95,10.57,32.35,32.35,0,0,0,10.12,7.09,29.17,29.17,0,0,0,12.12,2.59,32,32,0,0,0,12.71-2.59,34.06,34.06,0,0,0,10.64-7.09,35,35,0,0,0,7.32-10.57,31.27,31.27,0,0,0,2.73-13V391.17h27.19V527.42H546.51l-6.06-13.59a42.6,42.6,0,0,1-9.46,7.54,55.61,55.61,0,0,1-12.19,5.24A59.52,59.52,0,0,1,501.14,528.9Z" transform="translate(-183.43 -389.69)"/><path d="M644.7,389.69a51.71,51.71,0,0,1,21.2,4.43,54.78,54.78,0,0,1,17.37,12.12,56.34,56.34,0,0,1,11.67,18.55,64.84,64.84,0,0,1,4.29,24v78.62H672V448.8a32.14,32.14,0,0,0-2.59-12.71,34.77,34.77,0,0,0-17.22-17.95,28,28,0,0,0-12.12-2.74,31.28,31.28,0,0,0-13,2.74A34.31,34.31,0,0,0,609.45,436a31.77,31.77,0,0,0-2.59,12.78v78.62H579.67V391.17h19.66l6.06,13.74a47.06,47.06,0,0,1,9.31-7.68,73.74,73.74,0,0,1,12.26-5.1A56.82,56.82,0,0,1,644.7,389.69Z" transform="translate(-183.43 -389.69)"/><path d="M833.77,459.3a77.35,77.35,0,0,1-4.95,28.15,65,65,0,0,1-13.89,22,64.29,64.29,0,0,1-92.37,0,65.11,65.11,0,0,1-13.89-22,82.52,82.52,0,0,1,0-56.3,64.49,64.49,0,0,1,34.66-36.36,65.08,65.08,0,0,1,50.84,0,64.51,64.51,0,0,1,34.65,36.36A76.74,76.74,0,0,1,833.77,459.3Zm-27.19,0a47.29,47.29,0,0,0-11.53-31.63,35.76,35.76,0,0,0-12.12-9.09,33.23,33.23,0,0,0-28.37,0,35.76,35.76,0,0,0-12.12,9.09,48.58,48.58,0,0,0,0,63.25A35.76,35.76,0,0,0,754.56,500a33.23,33.23,0,0,0,28.37,0,35.76,35.76,0,0,0,12.12-9.09,47.29,47.29,0,0,0,11.53-31.62Z" transform="translate(-183.43 -389.69)"/><path d="M864.13,512.35a15.87,15.87,0,0,1-4.88,11.75,17,17,0,0,1-23.65,0,15.86,15.86,0,0,1-4.87-11.75,16.7,16.7,0,1,1,33.4,0Z" transform="translate(-183.43 -389.69)"/></svg>